<svg xmlns="http://www.w3.org/2000/svg" viewBox="0 0 29 24" fill="none" stroke="currentColor" stroke-linecap="round" stroke-linejoin="round">
  <rect x="2" y="2" width="25" height="20" rx="4" stroke-width="1.5"/>
  <path stroke-width="1.68" d="M2.78 7.8 L2.78 16.2"/>
  <path stroke-width="1.68" d="M2.78 7.8 L2.78 12.5"/>
  <path stroke-width="1.68" d="M2.78 7.8 C4.99 7.8 6.78 8.85 6.78 10.15 C6.78 11.45 4.99 12.5 2.78 12.5"/>
  <path stroke-width="1.68" d="M10.32 7.8 L10.32 16.2"/>
  <path stroke-width="1.68" d="M14.96 7.8 L14.96 16.2"/>
  <path stroke-width="1.68" d="M10.32 12.17 L14.96 12.17"/>
  <path stroke-width="1.68" d="M18.36 7.8 L18.36 16.2"/>
  <path stroke-width="1.68" d="M18.36 7.8 L18.36 12.5"/>
  <path stroke-width="1.68" d="M18.36 7.8 C20.57 7.8 22.36 8.85 22.36 10.15 C22.36 11.45 20.57 12.5 18.36 12.5"/>
</svg>
