<svg xmlns="http://www.w3.org/2000/svg" viewBox="0 0 24 24" fill="none" stroke="currentColor" stroke-linecap="round" stroke-linejoin="round">
  <rect x="2" y="2" width="20" height="20" rx="4" stroke-width="1.5"/>
  <path stroke-width="1.68" d="M3.04 7.8 L3.04 16.2"/>
  <path stroke-width="1.68" d="M3.04 7.8 L3.04 12.5"/>
  <path stroke-width="1.68" d="M3.04 7.8 C5.79 7.8 8.02 8.85 8.02 10.15 C8.02 11.45 5.79 12.5 3.04 12.5"/>
  <path stroke-width="1.68" d="M5.41 12.5 L8.58 16.2"/>
  <path stroke-width="1.68" d="M15.72 8.08 C16.71 8.56 17.19 9.53 16.89 10.44 C16.6 11.36 15.6 12 14.45 12"/>
  <path stroke-width="1.68" d="M14.45 12 C15.72 12 16.8 12.78 16.96 13.83 C17.12 14.88 16.32 15.86 15.09 16.13 C13.86 16.4 12.58 15.87 12.11 14.89"/>
</svg>
