<svg xmlns="http://www.w3.org/2000/svg" viewBox="0 0 29 24" fill="none" stroke="currentColor" stroke-linecap="round" stroke-linejoin="round">
  <rect x="2" y="2" width="25" height="20" rx="4" stroke-width="1.5"/>
  <path stroke-width="1.68" d="M3.97 8.08 C4.33 8.56 4.5 9.53 4.4 10.44 C4.29 11.36 3.92 12 3.51 12"/>
  <path stroke-width="1.68" d="M3.51 12 C3.97 12 4.36 12.78 4.42 13.83 C4.48 14.88 4.19 15.86 3.74 16.13 C3.29 16.4 2.83 15.87 2.66 14.89"/>
  <path stroke-width="1.68" d="M9.22 15.31 C8.74 16.66 8.06 16.45 7.65 14.85 C7.24 13.24 7.24 10.76 7.65 9.15 C8.06 7.55 8.74 7.34 9.22 8.69"/>
  <path stroke-width="1.68" d="M12.43 16.2 L13.71 7.8 L14.99 16.2"/>
  <path stroke-width="1.68" d="M12.86 13.01 L14.56 13.01"/>
  <path stroke-width="1.68" d="M17.79 7.8 L17.79 16.2 L19.21 16.2"/>
  <path stroke-width="1.68" d="M21.99 16.2 L23.28 7.8 L24.56 16.2"/>
  <path stroke-width="1.68" d="M22.43 13.01 L24.12 13.01"/>
</svg>
